<svg id="Layer_1" data-name="Layer 1" xmlns="http://www.w3.org/2000/svg" viewBox="0 0 456.79 112.34"><defs><style>.cls-1{fill:#393534;}.cls-2{fill:#eb5d20;}.cls-3{fill:#fff;}</style></defs><path class="cls-1" d="M249.55,101H233.92v11.15H247V119H233.92v17.4h-7.27V94.16h22.9Z" transform="translate(-21.21 -33.7)"/><path class="cls-1" d="M255.59,132.45a16.65,16.65,0,0,1,0-23.35,17.6,17.6,0,0,1,23.86,0,16.65,16.65,0,0,1,0,23.35,17.52,17.52,0,0,1-23.86,0Zm11.93-1.94a9.27,9.27,0,0,0,6.85-2.78,9.59,9.59,0,0,0,2.75-7,9.48,9.48,0,0,0-2.75-6.93,9.67,9.67,0,0,0-16.53,6.93,9.55,9.55,0,0,0,9.68,9.75Z" transform="translate(-21.21 -33.7)"/><path class="cls-1" d="M291.48,132.45a16.65,16.65,0,0,1,0-23.35,17.6,17.6,0,0,1,23.86,0,16.65,16.65,0,0,1,0,23.35,17.52,17.52,0,0,1-23.86,0Zm11.93-1.94a9.24,9.24,0,0,0,6.84-2.78,9.56,9.56,0,0,0,2.76-7,9.45,9.45,0,0,0-2.76-6.93,9.2,9.2,0,0,0-6.84-2.78,9.73,9.73,0,1,0,0,19.46Z" transform="translate(-21.21 -33.7)"/><path class="cls-1" d="M349,92.3h6.87v44.1H349v-4.85a13,13,0,0,1-11,5.59,14.31,14.31,0,0,1-11-4.69,17.72,17.72,0,0,1,0-23.35,14.39,14.39,0,0,1,11-4.66A12.89,12.89,0,0,1,349,110Zm-2.75,35.43a9.59,9.59,0,0,0,2.75-7,9.48,9.48,0,0,0-2.75-6.93,9.89,9.89,0,0,0-13.75,0,9.35,9.35,0,0,0-2.78,6.93,9.46,9.46,0,0,0,2.78,7,9.89,9.89,0,0,0,13.75,0Z" transform="translate(-21.21 -33.7)"/><path class="cls-1" d="M363.51,134.24a9.13,9.13,0,0,1-3.14-7h7a3.78,3.78,0,0,0,1.22,2.81,4.18,4.18,0,0,0,3,1.17,4.43,4.43,0,0,0,2.84-1,3,3,0,0,0,1.17-2.36c0-1.95-1.85-3.41-5.53-4.4q-9.24-2.33-9.24-9.62a8.44,8.44,0,0,1,3.08-6.88,11.31,11.31,0,0,1,7.51-2.54,11.19,11.19,0,0,1,7.68,2.75,8.69,8.69,0,0,1,3,6.73h-7a3.58,3.58,0,0,0-3.8-3.53,3.32,3.32,0,0,0-3.55,3c0,1.94,1.88,3.41,5.64,4.33q9.12,2.34,9.12,9.51a8.94,8.94,0,0,1-3.13,7.2,11.94,11.94,0,0,1-7.9,2.66A11.23,11.23,0,0,1,363.51,134.24Z" transform="translate(-21.21 -33.7)"/><path class="cls-1" d="M239,75.87a16.3,16.3,0,0,1-10.86-3.68,11.41,11.41,0,0,1-4.4-9.11h10.86a3.62,3.62,0,0,0,1.32,2.81A4.83,4.83,0,0,0,239.14,67a5.1,5.1,0,0,0,3-.9A2.66,2.66,0,0,0,243.39,64c0-1.88-2.33-3.37-7-4.5-8-1.93-12.06-6.18-12.06-12.67a10.74,10.74,0,0,1,4.16-8.58,15.78,15.78,0,0,1,10.41-3.45,16,16,0,0,1,10.54,3.51A11,11,0,0,1,253.63,47H242.82c0-2-1.67-3.46-4-3.46-2.12,0-3.74,1.21-3.74,2.81,0,2.14,2.28,3.24,6.5,4.39a23.29,23.29,0,0,1,8.62,3.77c2.6,1.88,4,4.94,4,8.77a11.12,11.12,0,0,1-4.37,8.93A16.56,16.56,0,0,1,239,75.87Z" transform="translate(-21.21 -33.7)"/><path class="cls-1" d="M284.72,75.12h-8.78V72.4a12.07,12.07,0,0,1-16.35.54,9.47,9.47,0,0,1-3.11-7.27,9.58,9.58,0,0,1,3.14-7.24,11,11,0,0,1,7.78-2.9h7.31V52.7H258.83V43.62h25.89Zm-10-9.84v-2.9h-4.32c-2.05,0-3.59,1.3-3.59,3a3.33,3.33,0,0,0,3.59,3.11C272.83,68.51,274.71,67.09,274.71,65.28Z" transform="translate(-21.21 -33.7)"/><path class="cls-1" d="M339.57,49.42v25.7h-10V53.3h-9.9V75.12h-10V53.3h-10V75.12h-10V43.62h44A5.8,5.8,0,0,1,339.57,49.42Z" transform="translate(-21.21 -33.7)"/><path class="cls-1" d="M365.56,43.62h11.16L359.49,86.85h-13V77.71h6l1.3-3.08-12.37-31h11.37l6.43,18.46Z" transform="translate(-21.21 -33.7)"/><path class="cls-1" d="M404.71,75.12h-8.78V72.4a12.08,12.08,0,0,1-16.36.54,9.46,9.46,0,0,1-3.1-7.27,9.58,9.58,0,0,1,3.13-7.24,11,11,0,0,1,7.79-2.9h7.3V52.7H378.82V43.62h25.89Zm-10-9.84v-2.9h-4.32c-2.05,0-3.59,1.3-3.59,3a3.33,3.33,0,0,0,3.59,3.11C392.82,68.51,394.69,67.09,394.69,65.28Z" transform="translate(-21.21 -33.7)"/><path class="cls-1" d="M440.66,49.42v25.7h-10V53.3h-11V75.12h-10V43.62h25.15A5.79,5.79,0,0,1,440.66,49.42Z" transform="translate(-21.21 -33.7)"/><path class="cls-1" d="M468,43.62h10V86.85H447.28V77.71H468V71.1a11.89,11.89,0,0,1-8.78,3.53,14.1,14.1,0,0,1-10.71-4.55,15.85,15.85,0,0,1-4.31-11.35,15.94,15.94,0,0,1,4.31-11.34,14.16,14.16,0,0,1,10.71-4.53A11.93,11.93,0,0,1,468,46.39Zm-1.93,20a7.15,7.15,0,0,0,0-9.74,6.8,6.8,0,0,0-11.64,4.85,6.64,6.64,0,0,0,2,4.89,6.84,6.84,0,0,0,9.65,0Z" transform="translate(-21.21 -33.7)"/><path class="cls-2" d="M89.32,89.87a56.12,56.12,0,0,1,24.05-46.09H21.21V136h92.16A56.09,56.09,0,0,1,89.32,89.87" transform="translate(-21.21 -33.7)"/><path class="cls-2" d="M145.49,33.7a55.93,55.93,0,0,0-32.12,10.08h0V136h0A56.17,56.17,0,1,0,145.49,33.7" transform="translate(-21.21 -33.7)"/><path class="cls-3" d="M113.38,43.78h0a56.18,56.18,0,0,0,0,92.17h0Z" transform="translate(-21.21 -33.7)"/></svg>