<svg id="Layer_1" data-name="Layer 1" xmlns="http://www.w3.org/2000/svg" viewBox="0 0 201 82.52"><defs><style>.cls-1{fill:#164194;}.cls-2{fill:#169fdb;}</style></defs><path class="cls-1" d="M38.59,94.56q-8,0-11.57-2.12t-3.56-3.72a4.87,4.87,0,0,1,.4-1.89,4.81,4.81,0,0,1,1.32-1.78,16.18,16.18,0,0,0,4.87,3,22.26,22.26,0,0,0,8.31,1.26q7.8,0,11.23-4.18A16.3,16.3,0,0,0,53,74.39a22.3,22.3,0,0,0-1.83-9.23,32.9,32.9,0,0,0-6.65-9L31.83,43.33a42.15,42.15,0,0,1-6-8,16.55,16.55,0,0,1-2.06-8.19,13.66,13.66,0,0,1,5-10.89Q33.78,12,42.72,12q7.56,0,10.94,1.6C55.92,14.71,57,15.78,57,16.85a3.92,3.92,0,0,1-.4,1.67,5.47,5.47,0,0,1-1.09,1.54,14.78,14.78,0,0,0-4.64-2.23,25.71,25.71,0,0,0-8.08-1.09A16.16,16.16,0,0,0,33,19.55a8.87,8.87,0,0,0-3.78,7.5,12.13,12.13,0,0,0,1.89,6.65,43,43,0,0,0,4.76,6.08l14.1,14.09a31.07,31.07,0,0,1,6.7,9.69,27.81,27.81,0,0,1,1.78,10.26,26.91,26.91,0,0,1-2,10.66,15.73,15.73,0,0,1-6.36,7.39Q45.7,94.56,38.59,94.56Z" transform="translate(-23.46 -12.04)"/><path class="cls-2" d="M77.67,94.33c-.38,0-.78-.51-1.2-1.55a26.57,26.57,0,0,1-1.2-4.06c-.62-2.45-1.34-5.37-2.18-8.77s-1.7-7-2.58-10.89-1.8-7.66-2.75-11.4S66,50.53,65.24,47.51s-1.51-6.32-2.35-9.91A1.49,1.49,0,0,1,63,36.51c.16-.19.63-.31,1.44-.34s2.08-.06,3.84-.06L73.2,57.77c.84,3.74,1.63,7.34,2.35,10.77s1.36,6.5,1.89,9.17,1.07,5.62,1.61,8.83h.34q.47-2.42,1.44-6.94t2.06-9.74q1.08-5.2,2-9.68l4.25-20.63a1.5,1.5,0,0,1,.51-1.09A2.34,2.34,0,0,1,91,38.17h1.37c.46,0,.75.1.86.29a.8.8,0,0,1,0,.74,8.72,8.72,0,0,0-.28.92l-.58,3.67q-.68,3.9-1.37,7.5t-1.61,8.2q-.92,4.59-2.06,9.91T84.78,80.12l-3.21,14.1c-1,0-1.8,0-2.41,0S78.06,94.33,77.67,94.33Zm26.48,0c-.31,0-.75-.57-1.32-1.72A26.11,26.11,0,0,1,101.17,88l-2-7.91q-1.38-5.5-2.58-10.77t-2.23-9.92q-1-4.63-1.72-8.14t-1.49-7.5l-.8-3.67a2.21,2.21,0,0,1,.17-1.32,1.18,1.18,0,0,1,1.2-.63h2.52l5.16,22.35q1.14,4.93,2.24,9.57t1.89,8.37c.53,2.48,1.1,5.18,1.72,8.08h.34q.35-2.87,1.15-7.57t1.94-10.25q1.15-5.56,2.18-10.95l4.36-20.17a1.91,1.91,0,0,1,.4-1.09,2.26,2.26,0,0,1,1.37-.34c.73,0,1.93-.06,3.61-.06q-1.37,6.3-2.58,11.46T115.44,59q-1.44,6.25-2.87,12.44t-2.63,11.35q-1.2,5.14-1.89,8.31a17.32,17.32,0,0,1-.81,3.15C105.87,94.29,104.84,94.33,104.15,94.33Z" transform="translate(-23.46 -12.04)"/><path class="cls-1" d="M128,93.42V14.56a1.26,1.26,0,0,1,.4-1.09,1.63,1.63,0,0,1,1-.28h3.33l.46,6.41L132.23,25c.07,2.68.13,5.12.17,7.34s.1,4.62.17,7.22.16,5.12.23,7.56.13,4.61.17,6.48.06,3.15.06,3.84L133.15,92a1.34,1.34,0,0,1-.29,1,2.26,2.26,0,0,1-1.38.35C130.76,93.4,129.59,93.42,128,93.42ZM147.93,77.6l-6.65-21.2a22.87,22.87,0,0,0-.8-3q-.79-2.64-2.06-6.54c-.84-2.59-1.68-5.33-2.52-8.19s-1.67-5.56-2.47-8.08-1.7-5.39-2.69-8.6l1.95-8.82,13.06,42.29c.16.38.44,1.32.86,2.81s.9,3.11,1.44,4.87,1.18,3.89,1.94,6.42q1.15-3.8,1.84-6.31c.46-1.68.91-3.24,1.37-4.7s.73-2.36.81-2.75l12.83-41.26,1.95,8q-1.38,4.82-2.46,8.49c-.73,2.44-1.53,5.08-2.41,7.9s-1.7,5.53-2.46,8.08-1.42,4.7-2,6.42-.84,2.7-.92,2.93l-6.76,20.17a1.29,1.29,0,0,1-1.26,1Zm18.8,15.82L167,58.34c0-.76,0-2.12,0-4.07s.1-4.24.18-6.87.13-5.33.17-8.08.09-5.33.17-7.74.15-5.06.23-8l-.92-1.72V14.56c.08-.15.19-.42.35-.8a1,1,0,0,1,1-.57H172V92a1.59,1.59,0,0,1-.23,1c-.15.2-.59.31-1.32.35S168.48,93.42,166.73,93.42Z" transform="translate(-23.46 -12.04)"/><path class="cls-1" d="M179.56,93.53h-1.31a18.63,18.63,0,0,1-1.89-.11l22-80c.08-.45.65-.68,1.72-.68.38,0,.78,0,1.2,0a4.42,4.42,0,0,1,1,.18L224.38,92c.15.54.09.92-.17,1.15a3.31,3.31,0,0,1-1.89.34h-1.38a18.17,18.17,0,0,1-1.83-.11L205.58,42.76q-1.26-4.82-2.35-9.29t-1.89-8a39.86,39.86,0,0,1-.92-5.27q-.22,1.71-1,5.27t-1.83,8q-1.1,4.47-2.47,9.29l-13,49.62a1.41,1.41,0,0,1-.74.92A5.4,5.4,0,0,1,179.56,93.53Zm7.11-22.92V65.68h29.11v4.93Z" transform="translate(-23.46 -12.04)"/></svg>