<svg id="Layer_1" data-name="Layer 1" xmlns="http://www.w3.org/2000/svg" viewBox="0 0 196.79 206.44"><defs><style>.cls-1{fill:#293a1f;}</style></defs><path class="cls-1" d="M78.4,106l2.5-2.35q2.34-9.39,7.46-10.85l.88-.88a4.83,4.83,0,0,1-1.76-3.09,7,7,0,0,1,.58-2l.59-2.93a20.9,20.9,0,0,1,2.19-5.21q1.91-3.6,2.63-12v-.88q0-3.09-3.06-10.27v-.59a9.53,9.53,0,0,1,1.82-5.35q1.83-2.71,3.59-2.72,11.12,0,13.23,4a24.89,24.89,0,0,0,3.89,5.79q4,2.79,4,11.45,0,5.43-2.13,7.26a9.79,9.79,0,0,0-2.86,3.74,11.45,11.45,0,0,1-2.27,3.6,7.12,7.12,0,0,0-1.54,2l.58,2.93q0,3.38-2.34,4.26v.88h1.46a3.49,3.49,0,0,0,2.43-.88,11.18,11.18,0,0,1,4.25-1.77,12.53,12.53,0,0,0,4.63-2,9.69,9.69,0,0,1,2.42-1.54,18.1,18.1,0,0,0,2.57-1.32l8.81-4.84a84.69,84.69,0,0,1,8.88-4.25,20.34,20.34,0,0,0,6.68-4.11l5-1.47,2.49.29c.4,0,1-.71,1.91-2.12s1.66-2.13,2.35-2.13L162,67a9.34,9.34,0,0,1,3.23-1.17l1.91-.29,3.82-3.38,3.08-.29a11.89,11.89,0,0,1,9.25-3.23,17.28,17.28,0,0,0,2.34-1.91,5.33,5.33,0,0,1,3.68-1.47,9,9,0,0,0,2.49-1.17l2.35-1.47a4.37,4.37,0,0,1,2.64-1.9l3.68-1.18a5.16,5.16,0,0,1,2.05-.88l1.91.59q4.4-3.52,6.6-3.52,8.37,0,8.37,7.63,0,6.88-5.73,12.76l-8.95,5.43a37.92,37.92,0,0,1-4,.81Q197,73,186.34,78.41l-2.21-.3a4.23,4.23,0,0,1-2.93,1.47l-1.76-.29a24.94,24.94,0,0,1-5.07,1.9,19.91,19.91,0,0,0-5.14,2.28,27.76,27.76,0,0,1-7.2,2.86,24.49,24.49,0,0,0-6.6,2.57,8.87,8.87,0,0,1-4,1.54h-1.47q-1.17,0-10.28,4.11c-1.76.68-3,1.12-3.67,1.32s-2.44.78-5.28,1.76l-6.61,3.81q-.58.15-5.73,2.79h-2.78q-.45,0-5.29,3.23a3.48,3.48,0,0,0-1,.29H109l-2.06-.29c-.39,0-1.1.46-2.13,1.39a10.16,10.16,0,0,1-4,2.13c-1.67.49-2.65,1.17-2.94,2l-2.35,4.55a7.43,7.43,0,0,1-2.57,3q-1.25.66-2.28,4.91l-8.36,17.17-1.76.88c.39,1.66.59,2.59.59,2.79a29,29,0,0,0-1.84,3.74A17.3,17.3,0,0,1,77.11,154a24.4,24.4,0,0,0-2.65,5.28q12.18,7.63,13.21,7.19l.59.59v.88q0,1.47,1.83,2.13A11.72,11.72,0,0,1,93,171.43c.69.49,2.25.73,4.71.73l3.52,3.52,1.76-.29a7.23,7.23,0,0,1,3.45,1.54,30.86,30.86,0,0,0,5,2.72,16.81,16.81,0,0,1,4,2.2,10.85,10.85,0,0,0,4,1.76q2.79.73,2.79,1.17c0,1.76,2.35,2.94,7,3.52,2.93,1.47,4.6,2.64,5,3.52a4.36,4.36,0,0,0,2.87,2.06,20.57,20.57,0,0,1,4.77,2.35l3.82,1.46a5,5,0,0,1,1,1.62c.3.68,1.57,1.34,3.82,2s3.58,1.39,4,2.27a6.21,6.21,0,0,0,2.35,2.5l2.64-.59q7.35,3.66,9.1,5.43c.59.19,1.69.54,3.31,1a5.64,5.64,0,0,1,3.3,2.13,6.41,6.41,0,0,0,3.53,2.28q7.64,2.34,9.1,12.32a43.78,43.78,0,0,1-3.37,6.31,38.23,38.23,0,0,0-4.11,1.83,26.19,26.19,0,0,1-5.43,1.69l-1.17,1c0,.19-.2.29-.59.29q-6.6,0-8.51-6.75a3.88,3.88,0,0,0-1.47-1.76c-.78,1-1.37,1.47-1.76,1.47a6.73,6.73,0,0,1-3.66-1.25,32.41,32.41,0,0,1-4.63-3.89,41.77,41.77,0,0,0-6.6-5.13q-3.89-2.49-5.94-4.11-6-6.16-16.72-10.86a19.6,19.6,0,0,1-2.43-2.05Q119.9,204,113.88,201T102.44,190.5l-1.18-.58c-1.56-1.28-3-2.5-4.18-3.67A9.53,9.53,0,0,0,92,183.9a28.4,28.4,0,0,1-5.14-4q-15.4-10.27-17.75-11.45,0,6.9-2,6.9l-1.61-.29c-.4,0-1,1.51-1.76,4.55v2L61.8,188c-1.18,4.3-2.74,6.6-4.7,6.89v2.21a29.25,29.25,0,0,0-3.58,7.26,33.25,33.25,0,0,1-2.11,5.72,44.89,44.89,0,0,0-2.63,7.7,111,111,0,0,1-5.41,14.38v.3l.89,2.49v1.17a17.79,17.79,0,0,1-1.18,4.55,22.44,22.44,0,0,1,1.47,3.23,6.17,6.17,0,0,1-.74,2.42c-.49,1-.94,2-1.33,2.86s-2.24,1.86-5.52,2.94a15.29,15.29,0,0,1-2.79-2.2,9.22,9.22,0,0,1-7.48-4.85,12.52,12.52,0,0,0-1-2.34,8.78,8.78,0,0,1-1-4,30.28,30.28,0,0,0-1-3.45,17.21,17.21,0,0,1-1-4.62A26.38,26.38,0,0,1,27,215.45l.29-1.91A27.64,27.64,0,0,1,29.18,209l2.05-4.4.3-2.06a8.2,8.2,0,0,1,1.39-3.74,64,64,0,0,0,4-8l1.17-1.91a32.9,32.9,0,0,1,2-4.11,1.78,1.78,0,0,0,.37-1.17l.29-1.62a2.61,2.61,0,0,0,1-2.05,15.68,15.68,0,0,0,2.05-1.47,75.58,75.58,0,0,1,3.67-9.09l4.55-10a2.59,2.59,0,0,0,.44-1q0-1-22.09-16.58A5.64,5.64,0,0,1,28,137q0-4.84,10-9.54a55,55,0,0,0,6.31-3.81q5.43-3.52,7.78-3.52c.58,0,3.2-1.35,7.84-4S67,112,67.41,111.86a2.12,2.12,0,0,0,1-.59,8.45,8.45,0,0,1,2.28-1.17,44.9,44.9,0,0,0,4.76-2.35A17,17,0,0,0,78.4,106ZM55.35,147.22l1.76.88h.58q1.31,0,6.26-13.5l4.55-10.86-1.76-.29c-.49,0-1.12.49-1.91,1.47Q51,130.2,47.92,132.69l-1.31.74a5.32,5.32,0,0,0-3.2,5.28A45.41,45.41,0,0,0,55.35,147.22Z" transform="translate(-22.58 -45.69)"/></svg>