<svg id="Layer_1" data-name="Layer 1" xmlns="http://www.w3.org/2000/svg" viewBox="0 0 230.3 89.8"><defs><style>.cls-1{fill:#293a1f;}</style></defs><path class="cls-1" d="M95.8,68.58l1-1q.94-3.8,3-4.4l.36-.35a1.93,1.93,0,0,1-.71-1.25,2.84,2.84,0,0,1,.23-.83l.24-1.19a8.4,8.4,0,0,1,.89-2.11,13.63,13.63,0,0,0,1.06-4.85V52.3a12.57,12.57,0,0,0-1.24-4.16V47.9a3.9,3.9,0,0,1,.74-2.17c.5-.73,1-1.1,1.45-1.1q4.5,0,5.36,1.64a9.88,9.88,0,0,0,1.58,2.34c1.07.76,1.6,2.3,1.6,4.64,0,1.47-.29,2.45-.86,2.94a4,4,0,0,0-1.16,1.52,4.55,4.55,0,0,1-.92,1.45,3.34,3.34,0,0,0-.62.8l.23,1.19a1.62,1.62,0,0,1-1,1.73v.35h.6a1.43,1.43,0,0,0,1-.35,4.55,4.55,0,0,1,1.72-.72,5,5,0,0,0,1.88-.8,3.57,3.57,0,0,1,1-.62,8.13,8.13,0,0,0,1-.54l3.57-2a33.28,33.28,0,0,1,3.59-1.72,8.17,8.17,0,0,0,2.71-1.67l2-.59,1,.12c.16,0,.42-.29.77-.86s.68-.87,1-.87l.71.12A3.81,3.81,0,0,1,131,52.3l.77-.12,1.55-1.37,1.24-.12a4.82,4.82,0,0,1,3.75-1.3,7.48,7.48,0,0,0,.95-.78,2.18,2.18,0,0,1,1.49-.59,3.65,3.65,0,0,0,1-.48l.95-.59a1.76,1.76,0,0,1,1.07-.77l1.49-.48a2,2,0,0,1,.83-.35l.77.23a5.25,5.25,0,0,1,2.68-1.42q3.39,0,3.39,3.09a7.33,7.33,0,0,1-2.32,5.17L147,54.62c-.08,0-.62.14-1.61.32a27.89,27.89,0,0,0-5.82,2.47l-.9-.12a1.67,1.67,0,0,1-1.18.59l-.72-.11a10.7,10.7,0,0,1-2.05.77,7.64,7.64,0,0,0-2.08.92,11.64,11.64,0,0,1-2.92,1.16,9.91,9.91,0,0,0-2.67,1,3.63,3.63,0,0,1-1.64.62h-.59A24.11,24.11,0,0,0,120.6,64c-.71.27-1.21.45-1.48.53s-1,.32-2.14.71l-2.68,1.55c-.16,0-.93.42-2.32,1.13h-1.13a13.12,13.12,0,0,0-2.14,1.31,1.47,1.47,0,0,0-.41.11h-.12l-.84-.11c-.16,0-.44.18-.86.56a4.14,4.14,0,0,1-1.63.86c-.68.2-1.08.48-1.19.83l-1,1.85a2.88,2.88,0,0,1-1,1.21c-.33.18-.64.85-.92,2l-3.39,7-.71.36c.16.67.24,1,.24,1.12a11.33,11.33,0,0,0-.74,1.52A6.68,6.68,0,0,1,95.27,88a11,11,0,0,0-1.07,2.14c3.29,2.06,5.08,3,5.35,2.92l.24.23v.36c0,.4.25.68.74.86a4.63,4.63,0,0,1,1.16.57,3.85,3.85,0,0,0,1.91.29L105,96.81l.72-.12a2.93,2.93,0,0,1,1.4.63,13,13,0,0,0,2,1.1,6.53,6.53,0,0,1,1.6.89,4.63,4.63,0,0,0,1.64.71c.75.2,1.13.36,1.13.48,0,.71,1,1.18,2.85,1.42,1.19.6,1.87,1.07,2,1.43a1.78,1.78,0,0,0,1.16.83,8.18,8.18,0,0,1,1.93.95l1.55.59a1.91,1.91,0,0,1,.41.66c.12.28.64.54,1.55.8s1.45.57,1.61.92a2.42,2.42,0,0,0,.95,1l1.07-.24a17.8,17.8,0,0,1,3.69,2.2l1.34.42a2.25,2.25,0,0,1,1.33.86,2.61,2.61,0,0,0,1.43.92q3.09,1,3.69,5a17.34,17.34,0,0,1-1.37,2.56,16.66,16.66,0,0,0-1.66.74,10.79,10.79,0,0,1-2.2.69l-.48.41c0,.08-.08.12-.23.12a3.32,3.32,0,0,1-3.45-2.73,1.64,1.64,0,0,0-.59-.72q-.48.6-.72.6a2.69,2.69,0,0,1-1.48-.51,13.09,13.09,0,0,1-1.88-1.57,16.73,16.73,0,0,0-2.67-2.08c-1-.68-1.85-1.23-2.41-1.67a21.2,21.2,0,0,0-6.77-4.39,7.56,7.56,0,0,1-1-.84,15.78,15.78,0,0,0-3.06-1.81,13.29,13.29,0,0,1-4.64-4.25l-.47-.23c-.64-.52-1.2-1-1.69-1.49a3.88,3.88,0,0,0-2.06-1,11.72,11.72,0,0,1-2.08-1.61Q93,94.38,92.05,93.9q0,2.79-.84,2.79l-.65-.12c-.16,0-.4.62-.71,1.85v.83l-.78,2.55c-.47,1.75-1.11,2.68-1.9,2.8v.89a11.82,11.82,0,0,0-1.45,2.94,13.7,13.7,0,0,1-.85,2.32,18.16,18.16,0,0,0-1.07,3.12,47,47,0,0,1-2.19,5.82v.12l.36,1v.48a7.14,7.14,0,0,1-.48,1.84,9.08,9.08,0,0,1,.6,1.3,2.52,2.52,0,0,1-.3,1c-.2.41-.38.8-.54,1.15s-.91.76-2.24,1.19a6,6,0,0,1-1.13-.89,3.75,3.75,0,0,1-3-2,4.92,4.92,0,0,0-.41-1,3.58,3.58,0,0,1-.42-1.61A13.55,13.55,0,0,0,73.6,121a7.14,7.14,0,0,1-.41-1.87A10.68,10.68,0,0,1,75,112.92l.12-.78a11.74,11.74,0,0,1,.77-1.84l.83-1.78.12-.83a3.31,3.31,0,0,1,.57-1.52A27.43,27.43,0,0,0,79,102.93l.48-.77a11.44,11.44,0,0,1,.8-1.66.73.73,0,0,0,.15-.48l.12-.65a1.1,1.1,0,0,0,.41-.84,5.24,5.24,0,0,0,.83-.59,32,32,0,0,1,1.49-3.68l1.84-4.05a1,1,0,0,0,.18-.41q0-.42-8.94-6.72a2.27,2.27,0,0,1-1-2c0-1.31,1.35-2.59,4-3.86A23.93,23.93,0,0,0,82,75.71a7.17,7.17,0,0,1,3.15-1.42,16.73,16.73,0,0,0,3.18-1.64c1.88-1.09,2.9-1.65,3.06-1.69a.91.91,0,0,0,.41-.24,3.15,3.15,0,0,1,.92-.47,17.79,17.79,0,0,0,1.93-1A7.11,7.11,0,0,0,95.8,68.58Zm-9.34,16.7.71.36h.24q.53,0,2.54-5.47l1.84-4.4-.71-.12q-.3,0-.78.6-5.61,2.13-6.85,3.15l-.53.29a2.17,2.17,0,0,0-1.3,2.14A18.53,18.53,0,0,0,86.46,85.28Z" transform="translate(-73.19 -44.16)"/><path class="cls-1" d="M174.32,47.43l.35-.6a1.4,1.4,0,0,1,1.31-.77,5.75,5.75,0,0,1,.89.24.49.49,0,0,1-.12-.36.63.63,0,0,1,.72-.71h.24c.07,0,.53-.12,1.36-.36l4.11-.48a12.23,12.23,0,0,1,3.68.72h.84l1.6.47a4.53,4.53,0,0,0,1.55,1.13c.32.08.47.2.47.36a5.85,5.85,0,0,0,1.49,1.42l1.73,1.85.23.47a17.42,17.42,0,0,0,1.16,1.87,5.54,5.54,0,0,1,.69,3.12l-.3.72c.43.2.65.37.65.53l-.35,2.14V61a5.56,5.56,0,0,1-.33,2,4.9,4.9,0,0,0-.33,1.84,4.23,4.23,0,0,1-.83,1.31v.11l.24,1.61c0,.16-.18.41-.54.77s-.53.64-.53.83a2.54,2.54,0,0,1-.66,1.9,6.22,6.22,0,0,1-1.42,3.12,9.93,9.93,0,0,0-1.69,3.18A11.92,11.92,0,0,1,188.89,81c-.31,1-.53,1.71-.65,2.14A4.08,4.08,0,0,1,187,84.78a3.28,3.28,0,0,0-1.09,2.58,2.84,2.84,0,0,1-1.67,1.78l-1.36,1.25v.72a4,4,0,0,1-1.43,2.67l-2,4.16a1.76,1.76,0,0,1-1.54,1.19l-.24.24a4.88,4.88,0,0,1-.59,2.25c-.28.36-.57.78-.89,1.25s-.62.9-.89,1.28a7.83,7.83,0,0,0-.89,1.78A6,6,0,0,1,173,108l-.59,1.31v.48c0,1.07-.36,1.6-1.07,1.6a3.13,3.13,0,0,1-.65-.12h-.12a7.87,7.87,0,0,1,.35,1.84,23.45,23.45,0,0,1-1.66,3.75l-.24.89v.95a5.67,5.67,0,0,0-1.18,1.69,1.81,1.81,0,0,1-.95,1c-.44.2-.65.34-.65.42l.23.36v.23l-.41,1.85.29,2.19a4.15,4.15,0,0,1-.53,1.25,3.92,3.92,0,0,1,2,3c0,1.71-.69,2.72-2.08,3h-.36l-1.18.12a5.18,5.18,0,0,1-2.91-.59,18.52,18.52,0,0,1-2.08-1.84l-.77-.48a1.67,1.67,0,0,1-.59-.89l-.6-.59q-1.24-1.55-1.25-5a1.29,1.29,0,0,1,.54-.83l.12-.35-.12-1.13a36.28,36.28,0,0,1,1.31-3.87l1.72-3.56a15.3,15.3,0,0,1,2-3.39,17,17,0,0,1,.6-2.2l.35-.24a3.88,3.88,0,0,1,.92-1.81,5.89,5.89,0,0,0,1.16-2.35c.56-.08.84-.19.84-.35a2,2,0,0,0-.12-.48v-.24a2.51,2.51,0,0,1,.86-1.87,5,5,0,0,0,1.28-1.9,4.29,4.29,0,0,1,1-1.63,4.86,4.86,0,0,0,1-1.91,2.68,2.68,0,0,1,1.19-.62c.51-.14.77-.33.77-.56a5.73,5.73,0,0,0-.53-1.13,20.8,20.8,0,0,1,3.45-5.71,4.93,4.93,0,0,0,.47-1.16,1.85,1.85,0,0,1,1-1.16,13.36,13.36,0,0,1,1.55-3.32,21.53,21.53,0,0,0,1.63-2.89c.5-1.05,1.11-1.57,1.82-1.57l.24-.36-.12-1.25s.17-.41.5-1.13.65-1.1.92-1.18a2.38,2.38,0,0,0,1-1l-.48-1a1.34,1.34,0,0,0,.42-.59c.12-.28.26-.42.41-.42,1-.55,1.49-1.15,1.49-1.78a3.93,3.93,0,0,0-.12-.77V68.7c0-.24.37-.76,1.1-1.57a4.24,4.24,0,0,0,1.1-2.95,3,3,0,0,1,.72-1.54,2.1,2.1,0,0,0,.59-1.19,1.51,1.51,0,0,1,.36-.89l-.24-1.49a5.91,5.91,0,0,0,1.13-3.15,1.87,1.87,0,0,0-.3-.59,2.31,2.31,0,0,1-.3-1.25c0-.24-.21-.55-.65-.95l-.24-.59a7.31,7.31,0,0,1-2.38-1.19c-.36-.36-1.35-.54-3-.54l-1.07.24-.89-.24a1.17,1.17,0,0,1-.6.24h-.12l-.59-.12a7.73,7.73,0,0,0-2.83.8,7.89,7.89,0,0,1-2.41.81,2.63,2.63,0,0,0-2.47,1c-.42.69-.75,1-1,1l-.6-.24h-.12c-.32,0-.6.55-.83,1.66l-.12.24a17.27,17.27,0,0,0-3.7,2.67l-3.87,4a9.46,9.46,0,0,0-2.15,2.7,2.53,2.53,0,0,1-1.2,1.34,6.18,6.18,0,0,0-.95,2.43,2.69,2.69,0,0,1-.66,2.11c-.43.38-.65.69-.65.92a1.07,1.07,0,0,0,.12.48,12.18,12.18,0,0,1,.47,1.31v.29a1.91,1.91,0,0,1-.44,1.25,2,2,0,0,0-.45.66,5.07,5.07,0,0,0,1,1.24c.69.72,1,1.23,1,1.55a4,4,0,0,1-1.4,2.94,4.23,4.23,0,0,1-2.94,1.34,3.33,3.33,0,0,1-2.17-.66c-.53-.43-.8-1.76-.8-4l.12-1.54.54-1.73-.12-1.84a9.6,9.6,0,0,1,1.13-2,16.7,16.7,0,0,0,1.42-2.64,11.33,11.33,0,0,1,3.27-5.41,1,1,0,0,0,.48-.83,2.34,2.34,0,0,1,.71-1.61c0-.16.28-.47.83-1a3,3,0,0,0,1-1.51,1.39,1.39,0,0,1,1.07-1c.58-.16,1-.7,1.22-1.61a10.56,10.56,0,0,1,3.27-2.67,4,4,0,0,1,2.09-2.08l1.6-1.07.36-.6a3.19,3.19,0,0,1,.95-.62,3.54,3.54,0,0,0,1.13-.86,6.58,6.58,0,0,1,2.2-.83Z" transform="translate(-73.19 -44.16)"/><path class="cls-1" d="M207.72,74.41l.36-.12h1.6c.48,0,1.17-.56,2.09-1.67a32.19,32.19,0,0,1,3.17-1.13l.24-.23a11.41,11.41,0,0,1,1.19-1h1.14a4.33,4.33,0,0,0,1-.57A13.63,13.63,0,0,1,222,68.46a16.93,16.93,0,0,0,3.53-1.19,25.68,25.68,0,0,1,2.62-.35l1.66-.3,1.31.12c2.1,0,3.6,1.39,4.52,4.16a1.77,1.77,0,0,0,.29.74,1.76,1.76,0,0,1,.3.75,8,8,0,0,1-2.44,5.22l-.83,2.2a3.79,3.79,0,0,1-.62.9,8.14,8.14,0,0,0-1.1,1.81,13.52,13.52,0,0,1-2.56,3.12c-.23.47-.57,1.22-1,2.23a7.5,7.5,0,0,1-1.1,2,33.86,33.86,0,0,0-2.31,3.56,14.57,14.57,0,0,0-1.88,3.63,3.46,3.46,0,0,0-1.21,2.2,8.63,8.63,0,0,1-1.22,2.91l-.12.42c1.27-.44,1.9-1.13,1.9-2.08,0-.12.33-.42,1-.9l.47-.83a2.7,2.7,0,0,1,1.25-1c.08-.32.49-.78,1.25-1.4s1.25-1,1.51-1.27a4.66,4.66,0,0,1,1.28-.75q.88-.37,2-2.94c.08-.32.39-.57.92-.77a3,3,0,0,0,1.34-1,4.35,4.35,0,0,1,.89-.92l.48-.72a5.44,5.44,0,0,1,.89-.71l2.9-3.56c1.55-1,2.4-1.77,2.56-2.32l.47-.12h.36c.63-.52,1-.87,1.24-1.07a2.29,2.29,0,0,1,1.34-2.35,4.46,4.46,0,0,0,1.93-1.37,1.65,1.65,0,0,1,1.31-.8,1.57,1.57,0,0,1,.65.36h.12c.12,0,.24-.2.35-.6v-.59a2.35,2.35,0,0,1,.6-1.66,2.85,2.85,0,0,1,1.6-.87,3.41,3.41,0,0,0,2-1.51,2.87,2.87,0,0,1,2.17-1.37,1.71,1.71,0,0,0,1.63-1,5.39,5.39,0,0,1,2.55-1.93,15.47,15.47,0,0,1,2.67-1.13,3.15,3.15,0,0,0,1-.33,2.05,2.05,0,0,1,.92-.23,6.45,6.45,0,0,1,1.72.35l1.07.24a6.55,6.55,0,0,1,2.56,2.2l.59.59v.24l.12,1v.48c.52.24.77.47.77.71l-.41.77a2,2,0,0,0-.24,1,10.55,10.55,0,0,1-.06,1.13c0,.38-.09.74-.15,1.07a6.28,6.28,0,0,1-.24,1,6.38,6.38,0,0,1-.32.84,6.08,6.08,0,0,1-.42.74l-.47,1.9a8.43,8.43,0,0,1-1.28,2.7,10.56,10.56,0,0,0-1.22,2.2,7.94,7.94,0,0,1-.83,1.7l.12.35V87c1.23-.16,1.85-.64,1.85-1.43A2,2,0,0,1,268,83.68l1.31-1.07A7.49,7.49,0,0,1,273.13,79a2.78,2.78,0,0,1,1.13-2l2.27-2.14,1.61-.89a4.84,4.84,0,0,1,2.45-2.68l1.31-.83c.8-.39,1.24-.78,1.34-1.16a2.34,2.34,0,0,1,.93-1.15c.51-.4,1.27-1,2.27-2l.47-.23.6-.6a6.92,6.92,0,0,1,1.48-.59l.48-.24a9.45,9.45,0,0,1,2.67-1.52,13.13,13.13,0,0,0,2.67-1.27l2.08-.3a3.93,3.93,0,0,1,1-.24q5.64,0,5.64,6.36l-.12,1,.12,3.45A27.31,27.31,0,0,0,302,74.58l.11,1.07a4.86,4.86,0,0,1-.77,1.4l-.92,1.4a14.06,14.06,0,0,1-1.1,1.24l-.59,1.79a3.48,3.48,0,0,1-1,1.13v.71c0,.59-.78,1.49-2.32,2.67a4.37,4.37,0,0,1-1,2.29,5.67,5.67,0,0,0-1.13,1.55A4.67,4.67,0,0,1,292,91.34,6.61,6.61,0,0,1,291,94a10.29,10.29,0,0,1-1.57,2.35,5.41,5.41,0,0,0-1.16,1.75l-.54.24c-.23,1.5-.51,2.35-.83,2.55l-1-.12V101a.92.92,0,0,0,.24.42,1,1,0,0,1,.24.65.9.9,0,0,1-.36.71,1.11,1.11,0,0,0-.42.6,1.56,1.56,0,0,1-.27.59,2.53,2.53,0,0,0-.27,1.16,6.23,6.23,0,0,1-.89,2.35,6.57,6.57,0,0,0-.89,2,5,5,0,0,1-.19.89,2.56,2.56,0,0,0-.11.71,13.71,13.71,0,0,1-.3,1.85c.75,1.78,1.29,3,1.61,3.62a4.08,4.08,0,0,1,.48,1.25,5.79,5.79,0,0,1-.6,3.18c-.4.53-1.37.8-2.92.8a3.68,3.68,0,0,1-2.6-1,3.09,3.09,0,0,0-1.93-1v-1.07l-.12-.12h-1a5,5,0,0,0-.51-.41,3.46,3.46,0,0,1-.74-.84l-.36-.35a5.46,5.46,0,0,1-.83-2l-.36-1.19.12-1-.12-1.49a3.05,3.05,0,0,1,.12-1l.12-1.6a4.83,4.83,0,0,1,.24-1,8.32,8.32,0,0,0,.3-1.91,2.9,2.9,0,0,1,.53-1.69,2.28,2.28,0,0,0,.54-1,1.06,1.06,0,0,1,.32-.68,2.81,2.81,0,0,0,.45-1.34,2.44,2.44,0,0,1,1.25-1.72c.39-.72.73-1.39,1-2a20.2,20.2,0,0,1,1.3-1.73h.84a3.09,3.09,0,0,1-.6-.83c0-1.07.42-1.6,1.25-1.6a1.82,1.82,0,0,1,.59.11l.24-.47-.24-1c0-.68.52-1.35,1.55-2a4,4,0,0,1,1.6-3.09l-.12-.95a7.58,7.58,0,0,0,1-1.58,16.47,16.47,0,0,1,1.67-2.46l1.84-2.8.83-1s0,0,0,0a1.18,1.18,0,0,0,.12-.24,5.37,5.37,0,0,0,.21-.62l.36-.89.41-.48c1-.27,1.55-.63,1.55-1.07a2.88,2.88,0,0,0-.48-.77v-.24a2,2,0,0,1,.72-1.19,7.15,7.15,0,0,0,1.33-2,5.76,5.76,0,0,0,.63-1.57.21.21,0,0,0-.24-.24,2.57,2.57,0,0,0-2.56,1.37c0,.24-.77.71-2.31,1.42l-.6.9a2,2,0,0,1-1.25.65,2.56,2.56,0,0,0-1.39.68q-.87.69-3.78,3.09a41.71,41.71,0,0,0-4.28,4l-1.36,1c-.56.27-.84.49-.84.65,0,.4-.33.91-1,1.54l-.72.9a6.09,6.09,0,0,0-.95-.3,1.37,1.37,0,0,0-1.13.65c.31.32.47.52.47.6,0,.63-.59,1.28-1.79,2l-2.56,2.67c-.08.08-.38.3-.89.66a3.39,3.39,0,0,0-1.17,1.33,16.38,16.38,0,0,1-2.11,2.8,17.17,17.17,0,0,1-2,2.14,2.14,2.14,0,0,0-.72.8,10.35,10.35,0,0,1-1.73,1.84,4.24,4.24,0,0,0-1.49,2.62c-.75.27-1.13.51-1.13.71l-.36.59-.47.24a2.57,2.57,0,0,0-.18.8c0,.38-.84,1-2.38,2a9.1,9.1,0,0,1-2.91,1.46,1.16,1.16,0,0,0-.54.24,1.09,1.09,0,0,1-.47.23,7.93,7.93,0,0,1-1.58-.71c-.93-.47-1.61-1.58-2.05-3.33l.48-1.54-.24-1.25a1.67,1.67,0,0,1,.56-1,2.07,2.07,0,0,0,.57-1.49c.63-1.42,1.11-2.43,1.43-3l.11-.95a6.18,6.18,0,0,1,.81-1.34,3.48,3.48,0,0,0,.68-1.66,1.29,1.29,0,0,1,.77-1.16q.66-.24,4.82-7.19v-.83l1.72-3c.51-.87,1.15-1.86,1.9-3l.54-1.37a20.54,20.54,0,0,0-2-.71,1.5,1.5,0,0,0-.9.47c0,.68-1.16,1.37-3.5,2.08a6.73,6.73,0,0,0-1.84,1.72l-1.66,1a8.81,8.81,0,0,0-1.13.95l-.83.77A4.65,4.65,0,0,0,245.69,84l-1.6,1.13a8.23,8.23,0,0,0-1,.89,10.35,10.35,0,0,1-2.2,1.31l-.95,1-.89.48a13.93,13.93,0,0,0-1.43,1.72,1.77,1.77,0,0,1-1.24.83l-1.31.48a5.5,5.5,0,0,1-2.2,3l-1.72,2.14a9.41,9.41,0,0,1-.83.65,1.46,1.46,0,0,1-.83.84c-.52.63-.85,1.06-1,1.3l-.72.54c-1.07.39-1.6.71-1.6.95l.12,1.07c0,.43-.48.85-1.43,1.25a1.18,1.18,0,0,0-.68,1,4.58,4.58,0,0,1-.44,1.36h-1.07a4.14,4.14,0,0,0-1.13.6.35.35,0,0,0-.24.12l.24,1.36a2.54,2.54,0,0,1-1,1.64,12.16,12.16,0,0,0-1.46,1.63c-.33.48-.58.72-.74.72h-.36l-.35.23a3.26,3.26,0,0,1-1.49,2.44l-.71.89a22.49,22.49,0,0,0-2,3,31.53,31.53,0,0,1-3.15,4.34A8.78,8.78,0,0,1,207.6,125c-.83.38-1.72.76-2.67,1.16l-2.44-.48a2.88,2.88,0,0,0-1-1.07c-.45-.27-.68-.57-.68-.89l-.71-2.08a4.51,4.51,0,0,1,.65-2.05,7.8,7.8,0,0,0,.8-1.9,9.39,9.39,0,0,1,.69-1.84,9.47,9.47,0,0,0,.53-1.28c0-1.07.17-1.73.51-2l2.28-1.75q.12,0,.12-.24v-.12l-.12-1c.91-1.55,1.49-2.32,1.73-2.32a1.92,1.92,0,0,1,.47.12l-.35-1.31c0-.16.21-.41.65-.77a4.16,4.16,0,0,0,1-1.19l-.24-.71v-.24a3.23,3.23,0,0,1,1.49-2.32c.16-.31.47-1.13.95-2.43l1.55-2.74A3.67,3.67,0,0,1,214,94.05a1.31,1.31,0,0,0,.72-.92,3.22,3.22,0,0,1,.42-1.19c0,.2,0,.21.08,0s.16-.57.3-1.16a2.19,2.19,0,0,1,1.35-1.43c.91-2.34,1.63-3.5,2.15-3.5a1.44,1.44,0,0,1,.66.23H220c.63,0,.95-.23.95-.71a.21.21,0,0,0-.24-.24,1.43,1.43,0,0,1-.95.6q-.42,0-.42-.24t.18-.24l1.31-2.67.12-1.13a7.58,7.58,0,0,1,1-1.07l1-1.37v-.59a7.89,7.89,0,0,1,.53-1.22,9.79,9.79,0,0,0,.78-2.17l1-1.49a4.06,4.06,0,0,0,.23-1.3c0-.6-.07-.9-.23-.9l-3.45.66a36.06,36.06,0,0,0-4,2.26l-1.38.29a11.41,11.41,0,0,0-1.58.81,6.8,6.8,0,0,1-2.57.89,3.11,3.11,0,0,0-1.94.86l-.24.12h-1.13a9.83,9.83,0,0,0-.89,1.16c-.16.25-.3.38-.42.38q-6,4-7.6,4.82a14.34,14.34,0,0,0-2.44,1.51,7.19,7.19,0,0,1-1.43,1v.72a3.4,3.4,0,0,1-1.45,2.28,4.14,4.14,0,0,1-2.53,1.28,2.88,2.88,0,0,1-1.1-.38,4.88,4.88,0,0,0-1.66-.51c-.62-.08-.92-.83-.92-2.26q0-3,5-5.52a8.8,8.8,0,0,0,1.43-.84,41.35,41.35,0,0,1,5.28-2.31l1.73-.84a5.59,5.59,0,0,1,2-1.1c.93-.33,1.66-.62,2.2-.86a7.83,7.83,0,0,1,1.28-.47ZM263.5,88.79l.59-1.07V87.6q0-.12-.24-.12c-.39,0-.71.4-1,1.19q.12.36.24.36A.38.38,0,0,0,263.5,88.79Z" transform="translate(-73.19 -44.16)"/></svg>